<svg width="35" height="35" viewBox="0 0 35 35" fill="none" xmlns="http://www.w3.org/2000/svg">
<path d="M24.6091 16.2423C25.8577 15.1967 26.6517 13.6262 26.6517 11.8702C26.6517 10.1143 25.8577 8.54383 24.6091 7.49823C24.7522 7.42893 24.8899 7.35373 25.0211 7.27223C25.8493 6.75727 26.8268 6.45987 27.8738 6.45987C30.8619 6.45987 33.2842 8.88223 33.2842 11.8702C33.2842 14.8583 30.8619 17.2806 27.8738 17.2806C26.8268 17.2806 25.8493 16.9832 25.0211 16.4683C24.8899 16.3868 24.7522 16.3116 24.6091 16.2423Z" fill="url(#paint0_linear_17_28)"/>
<path d="M23.1065 12.722C23.665 11.1922 23.5674 9.43513 22.6894 7.91443C21.8114 6.39373 20.3385 5.43064 18.7344 5.14943C18.8237 5.0179 18.9053 4.88391 18.9781 4.74773C19.4379 3.88768 20.1358 3.14135 21.0425 2.61785C23.6303 1.12381 26.9393 2.01044 28.4333 4.59819C29.9273 7.18595 29.0407 10.4949 26.4529 11.9889C25.5462 12.5124 24.5509 12.7436 23.5762 12.7118C23.4219 12.7067 23.265 12.7105 23.1065 12.722Z" fill="url(#paint1_linear_17_28)"/>
<path d="M20.0447 10.4246C19.7635 8.82053 18.8004 7.34763 17.2797 6.46965C15.759 5.59167 14.0019 5.49407 12.4721 6.05258C12.4837 5.89404 12.4874 5.73717 12.4823 5.58285C12.4505 4.60812 12.6817 3.61284 13.2052 2.7061C14.6993 0.118349 18.0082 -0.768281 20.596 0.725759C23.1837 2.2198 24.0704 5.52875 22.5763 8.11653C22.0528 9.02323 21.3065 9.72113 20.4464 10.1809C20.3103 10.2537 20.1763 10.3353 20.0447 10.4246Z" fill="url(#paint2_linear_17_28)"/>
<path d="M16.2442 9.96593C15.1986 8.71733 13.6281 7.92333 11.8721 7.92333C10.1161 7.92333 8.54564 8.71733 7.50005 9.96593C7.43079 9.82283 7.35557 9.68513 7.27404 9.55393C6.7591 8.72573 6.4617 7.74823 6.4617 6.70121C6.4617 3.71312 8.88402 1.2908 11.8721 1.2908C14.8602 1.2908 17.2825 3.71312 17.2825 6.70121C17.2825 7.74823 16.9851 8.72573 16.4702 9.55393C16.3886 9.68513 16.3134 9.82283 16.2442 9.96593Z" fill="url(#paint3_linear_17_28)"/>
<path d="M12.7231 11.4687C11.1933 10.9102 9.43617 11.0078 7.91546 11.8857C6.39475 12.7637 5.43166 14.2366 5.15046 15.8407C5.01893 15.7514 4.88493 15.6698 4.74875 15.597C3.8887 15.1372 3.14237 14.4393 2.61887 13.5326C1.12482 10.9448 2.01145 7.63593 4.59921 6.14187C7.18697 4.64782 10.4959 5.53445 11.99 8.12223C12.5135 9.02893 12.7447 10.0242 12.7128 10.9989C12.7078 11.1532 12.7115 11.3101 12.7231 11.4687Z" fill="url(#paint4_linear_17_28)"/>
<path d="M10.4247 14.5307C8.82056 14.8119 7.34767 15.775 6.46969 17.2957C5.59171 18.8164 5.49411 20.5735 6.05263 22.1033C5.89407 22.0917 5.73718 22.088 5.58284 22.093C4.60812 22.1249 3.61284 21.8937 2.70611 21.3702C0.118349 19.8761 -0.768282 16.5672 0.72576 13.9794C2.2198 11.3917 5.52875 10.505 8.11651 11.9991C9.02324 12.5226 9.72111 13.2689 10.1809 14.1289C10.2537 14.2651 10.3354 14.3991 10.4247 14.5307Z" fill="url(#paint5_linear_17_28)"/>
<path d="M9.96509 18.3315C8.71649 19.3771 7.92246 20.9476 7.92246 22.7035C7.92246 24.4595 8.71649 26.03 9.96509 27.0756C9.822 27.1448 9.68428 27.2201 9.55314 27.3016C8.72493 27.8165 7.74739 28.1139 6.70038 28.1139C3.7123 28.1139 1.28998 25.6916 1.28998 22.7035C1.28998 19.7154 3.7123 17.2931 6.70038 17.2931C7.74739 17.2931 8.72493 17.5905 9.55314 18.1055C9.68428 18.187 9.822 18.2622 9.96509 18.3315Z" fill="url(#paint6_linear_17_28)"/>
<path d="M11.4674 21.8527C10.9088 23.3825 11.0064 25.1396 11.8844 26.6603C12.7624 28.1811 14.2353 29.1441 15.8394 29.4253C15.7501 29.5569 15.6685 29.6909 15.5957 29.8271C15.1359 30.6871 14.438 31.4334 13.5313 31.9569C10.9435 33.451 7.63456 32.5643 6.14052 29.9766C4.64647 27.3888 5.53311 24.0799 8.12086 22.5858C9.0276 22.0623 10.0229 21.8311 10.9976 21.863C11.1519 21.868 11.3088 21.8643 11.4674 21.8527Z" fill="url(#paint7_linear_17_28)"/>
<path d="M14.5293 24.1511C14.8105 25.7552 15.7736 27.2281 17.2943 28.106C18.815 28.984 20.5722 29.0816 22.102 28.5231C22.0904 28.6817 22.0867 28.8385 22.0917 28.9929C22.1236 29.9676 21.8924 30.9629 21.3689 31.8696C19.8748 34.4574 16.5659 35.344 13.9781 33.8499C11.3903 32.3559 10.5037 29.047 11.9978 26.4592C12.5213 25.5525 13.2676 24.8546 14.1276 24.3948C14.2638 24.322 14.3978 24.2403 14.5293 24.1511Z" fill="url(#paint8_linear_17_28)"/>
<path d="M18.3301 24.6107C19.3757 25.8593 20.9462 26.6533 22.7022 26.6533C24.4582 26.6533 26.0287 25.8593 27.0743 24.6107C27.1435 24.7538 27.2187 24.8915 27.3003 25.0226C27.8152 25.8508 28.1126 26.8284 28.1126 27.8754C28.1126 30.8635 25.6903 33.2858 22.7022 33.2858C19.7141 33.2858 17.2918 30.8635 17.2918 27.8754C17.2918 26.8284 17.5892 25.8508 18.1041 25.0226C18.1857 24.8915 18.2609 24.7538 18.3301 24.6107Z" fill="url(#paint9_linear_17_28)"/>
<path d="M21.8514 23.1084C23.3812 23.6669 25.1383 23.5693 26.659 22.6914C28.1797 21.8134 29.1428 20.3405 29.424 18.7364C29.5555 18.8256 29.6895 18.9073 29.8257 18.9801C30.6858 19.4399 31.4321 20.1378 31.9556 21.0445C33.4497 23.6323 32.563 26.9412 29.9753 28.4353C27.3875 29.9293 24.0786 29.0427 22.5845 26.4549C22.061 25.5482 21.8298 24.5529 21.8616 23.5782C21.8667 23.4239 21.863 23.267 21.8514 23.1084Z" fill="url(#paint10_linear_17_28)"/>
<path d="M28.108 17.2757C28.1069 17.2776 28.1058 17.2795 28.1047 17.2814C27.2268 18.8021 25.7539 19.7652 24.1498 20.0464C24.239 20.178 24.3207 20.312 24.3935 20.4481C24.8533 21.3082 25.5512 22.0545 26.4579 22.578C29.0457 24.0721 32.3546 23.1854 33.8487 20.5977C35.1295 18.3791 34.6606 15.6305 32.8701 13.9499C32.0835 15.8376 30.2582 17.1841 28.108 17.2757Z" fill="url(#paint11_linear_17_28)"/>
<defs>
<linearGradient id="paint0_linear_17_28" x1="25.2865" y1="6.45987" x2="25.2865" y2="17.2806" gradientUnits="userSpaceOnUse">
<stop stop-color="#25136D"/>
<stop offset="1" stop-color="#3D9BA2"/>
</linearGradient>
<linearGradient id="paint1_linear_17_28" x1="18.8019" y1="3.91148" x2="24.2123" y2="13.2826" gradientUnits="userSpaceOnUse">
<stop stop-color="#25136D"/>
<stop offset="1" stop-color="#3D9BA2"/>
</linearGradient>
<linearGradient id="paint2_linear_17_28" x1="11.9116" y1="4.94675" x2="21.2827" y2="10.3571" gradientUnits="userSpaceOnUse">
<stop stop-color="#25136D"/>
<stop offset="1" stop-color="#3D9BA2"/>
</linearGradient>
<linearGradient id="paint3_linear_17_28" x1="6.4617" y1="9.28843" x2="17.2825" y2="9.28843" gradientUnits="userSpaceOnUse">
<stop stop-color="#25136D"/>
<stop offset="1" stop-color="#3D9BA2"/>
</linearGradient>
<linearGradient id="paint4_linear_17_28" x1="3.91251" y1="15.7732" x2="13.2836" y2="10.3628" gradientUnits="userSpaceOnUse">
<stop stop-color="#25136D"/>
<stop offset="1" stop-color="#3D9BA2"/>
</linearGradient>
<linearGradient id="paint5_linear_17_28" x1="4.94677" y1="22.6638" x2="10.3572" y2="13.2927" gradientUnits="userSpaceOnUse">
<stop stop-color="#25136D"/>
<stop offset="1" stop-color="#3D9BA2"/>
</linearGradient>
<linearGradient id="paint6_linear_17_28" x1="9.28766" y1="28.1139" x2="9.28766" y2="17.2931" gradientUnits="userSpaceOnUse">
<stop stop-color="#25136D"/>
<stop offset="1" stop-color="#3D9BA2"/>
</linearGradient>
<linearGradient id="paint7_linear_17_28" x1="15.7719" y1="30.6633" x2="10.3615" y2="21.2922" gradientUnits="userSpaceOnUse">
<stop stop-color="#25136D"/>
<stop offset="1" stop-color="#3D9BA2"/>
</linearGradient>
<linearGradient id="paint8_linear_17_28" x1="22.6625" y1="29.629" x2="13.2914" y2="24.2185" gradientUnits="userSpaceOnUse">
<stop stop-color="#25136D"/>
<stop offset="1" stop-color="#3D9BA2"/>
</linearGradient>
<linearGradient id="paint9_linear_17_28" x1="28.1126" y1="25.2881" x2="17.2918" y2="25.2881" gradientUnits="userSpaceOnUse">
<stop stop-color="#25136D"/>
<stop offset="1" stop-color="#3D9BA2"/>
</linearGradient>
<linearGradient id="paint10_linear_17_28" x1="30.662" y1="18.8039" x2="21.2909" y2="24.2143" gradientUnits="userSpaceOnUse">
<stop stop-color="#25136D"/>
<stop offset="1" stop-color="#3D9BA2"/>
</linearGradient>
<linearGradient id="paint11_linear_17_28" x1="29.6277" y1="11.9133" x2="24.2173" y2="21.2844" gradientUnits="userSpaceOnUse">
<stop stop-color="#25136D"/>
<stop offset="1" stop-color="#3D9BA2"/>
</linearGradient>
</defs>
</svg>
